<svg width="1016" height="238" viewBox="0 0 1016 238" fill="none" xmlns="http://www.w3.org/2000/svg">
<path d="M215.241 103.466L215.574 64.5287C215.58 63.7238 215.746 62.9281 216.06 62.1871C216.374 61.446 216.831 60.7741 217.405 60.2098C217.979 59.6454 218.658 59.1995 219.405 58.8977C220.151 58.5959 220.949 58.444 221.754 58.4508C222.559 58.4575 223.355 58.6227 224.096 58.9369C224.837 59.2511 225.509 59.7082 226.073 60.2821C226.638 60.856 227.083 61.5355 227.385 62.2817C227.687 63.0279 227.839 63.8262 227.832 64.6311L227.064 154.777C227.058 155.582 226.893 156.377 226.578 157.118C226.264 157.859 225.807 158.531 225.233 159.096C224.659 159.66 223.98 160.106 223.234 160.408C222.487 160.71 221.689 160.861 220.884 160.855C220.079 160.848 219.283 160.683 218.542 160.369C217.801 160.054 217.129 159.597 216.565 159.023C216.001 158.449 215.555 157.77 215.253 157.024C214.951 156.278 214.799 155.479 214.806 154.674L215.139 115.724L159.451 115.251L159.118 154.188C159.111 154.993 158.946 155.789 158.632 156.53C158.318 157.271 157.86 157.943 157.286 158.507C156.713 159.072 156.033 159.517 155.287 159.819C154.541 160.121 153.742 160.273 152.937 160.266C152.133 160.259 151.337 160.094 150.596 159.78C149.855 159.466 149.183 159.009 148.618 158.435C148.054 157.861 147.608 157.181 147.306 156.435C147.005 155.689 146.853 154.891 146.859 154.086L147.627 63.9401C147.635 63.1352 147.801 62.3397 148.116 61.599C148.431 60.8583 148.889 60.1868 149.463 59.623C150.038 59.0592 150.717 58.6141 151.464 58.3131C152.211 58.012 153.009 57.861 153.814 57.8686C154.619 57.8761 155.414 58.0421 156.155 58.3571C156.896 58.6722 157.567 59.13 158.131 59.7045C158.695 60.2789 159.14 60.9589 159.441 61.7054C159.742 62.4519 159.893 63.2504 159.886 64.0553L159.553 102.993L215.241 103.466Z" fill="#581E85"/>
<path d="M298.069 152.96C294.905 154.583 291.388 155.396 287.833 155.327L261.281 155.097C258.264 155.085 255.282 154.458 252.516 153.254C247.087 150.933 242.793 146.565 240.564 141.098C239.411 138.313 238.836 135.322 238.875 132.308L239.182 95.5327C239.175 94.7159 239.331 93.9059 239.641 93.1501C239.951 92.3943 240.408 91.7078 240.986 91.131C241.555 90.5499 242.234 90.0881 242.983 89.7729C243.732 89.4577 244.537 89.2953 245.35 89.2953C246.163 89.2953 246.968 89.4577 247.717 89.7729C248.466 90.0881 249.145 90.5499 249.713 91.131C250.281 91.7223 250.726 92.4203 251.023 93.1846C251.319 93.9489 251.461 94.7643 251.441 95.5839L251.134 132.346C251.108 133.706 251.354 135.058 251.857 136.322C252.36 137.586 253.11 138.738 254.063 139.709C255.016 140.68 256.154 141.451 257.408 141.977C258.663 142.504 260.01 142.775 261.37 142.774L287.935 143.005C289.29 143.051 290.639 142.814 291.897 142.31C293.155 141.805 294.294 141.044 295.241 140.075C296.207 139.116 296.97 137.973 297.484 136.713C297.999 135.453 298.254 134.103 298.236 132.743L298.543 95.9806C298.534 95.1616 298.689 94.3492 298.999 93.591C299.309 92.8329 299.767 92.1444 300.347 91.566C300.909 90.9756 301.59 90.5099 302.343 90.1991C303.097 89.8883 303.908 89.7394 304.723 89.7618C305.552 89.7685 306.371 89.9394 307.134 90.2646C307.896 90.5899 308.586 91.0632 309.165 91.6569C309.743 92.2507 310.198 92.9533 310.503 93.724C310.808 94.4946 310.957 95.3182 310.942 96.1469L310.341 167.086C310.347 170.67 309.597 174.215 308.14 177.489C305.363 183.84 300.25 188.88 293.859 191.564C290.559 192.949 287.009 193.637 283.431 193.586L248.702 193.215C247.889 193.225 247.082 193.064 246.335 192.742C245.588 192.42 244.917 191.945 244.365 191.347C243.803 190.782 243.36 190.111 243.061 189.373C242.763 188.634 242.614 187.844 242.624 187.048C242.618 186.228 242.775 185.415 243.087 184.657C243.399 183.899 243.86 183.211 244.441 182.633C245.002 182.044 245.68 181.578 246.432 181.268C247.183 180.957 247.992 180.807 248.805 180.829L283.533 181.123C285.425 181.168 287.307 180.831 289.066 180.132C290.825 179.432 292.425 178.386 293.77 177.054C295.091 175.75 296.163 174.215 296.93 172.524C297.749 170.777 298.185 168.875 298.21 166.945L298.325 152.87L298.069 152.96Z" fill="#581E85"/>
<path d="M321.179 125.884C321.184 121.165 322.134 116.495 323.971 112.149C325.808 107.802 328.496 103.867 331.876 100.574C335.216 97.3587 339.12 94.7864 343.392 92.9863C347.787 91.1119 352.524 90.1749 357.302 90.2353C362.128 90.246 366.9 91.2614 371.313 93.2167C375.53 95.084 379.359 97.7275 382.599 101.009C385.824 104.302 388.383 108.186 390.136 112.449C391.935 116.887 392.84 121.637 392.798 126.427C392.757 131.216 391.769 135.949 389.893 140.356C388.074 144.598 385.469 148.458 382.215 151.731C378.862 155.049 374.88 157.663 370.503 159.421C366.126 161.179 361.442 162.045 356.726 161.968C352.426 161.937 348.167 161.139 344.147 159.614C340.123 158.086 336.424 155.811 333.245 152.909L332.938 188.455C332.942 189.263 332.784 190.063 332.473 190.809C332.162 191.555 331.706 192.231 331.13 192.797C330.554 193.364 329.87 193.809 329.119 194.107C328.368 194.405 327.565 194.55 326.758 194.533C325.951 194.533 325.152 194.373 324.408 194.061C323.664 193.749 322.989 193.292 322.423 192.717C321.857 192.142 321.412 191.459 321.113 190.71C320.813 189.961 320.666 189.159 320.68 188.353L321.179 125.884ZM356.751 149.71C359.911 149.755 363.046 149.154 365.965 147.944C368.767 146.785 371.321 145.1 373.489 142.979C375.651 140.844 377.388 138.316 378.607 135.532C379.842 132.635 380.492 129.522 380.518 126.373C380.544 123.224 379.947 120.1 378.76 117.183C377.599 114.375 375.909 111.817 373.783 109.646C371.656 107.473 369.127 105.735 366.336 104.528C363.442 103.263 360.319 102.61 357.161 102.609C354.007 102.564 350.877 103.16 347.961 104.362C342.259 106.689 337.697 111.159 335.254 116.812C334.002 119.709 333.353 122.83 333.348 125.986C333.289 129.146 333.886 132.282 335.101 135.199C336.264 138.002 337.953 140.557 340.078 142.723C342.206 144.896 344.735 146.634 347.526 147.842C350.439 149.093 353.58 149.729 356.751 149.71Z" fill="#581E85"/>
<path d="M464.852 126.677C465.647 126.813 466.405 127.11 467.081 127.55C467.757 127.99 468.335 128.564 468.78 129.237C469.633 130.625 469.956 132.274 469.689 133.881C468.859 137.992 467.303 141.922 465.095 145.487C462.971 148.956 460.275 152.04 457.123 154.61C453.961 157.149 450.397 159.143 446.579 160.509C442.647 161.932 438.49 162.634 434.308 162.582C428.083 162.538 421.975 160.89 416.573 157.797C411.724 154.994 407.6 151.095 404.531 146.41C401.462 141.726 399.534 136.387 398.901 130.823C397.818 121.56 400.414 112.242 406.131 104.874C411.398 97.954 419.014 93.1992 427.543 91.5047C436.073 89.8101 444.927 91.2928 452.44 95.6734C457.974 98.8678 462.548 103.49 465.684 109.058C466.115 109.739 466.395 110.505 466.506 111.304C466.616 112.103 466.554 112.917 466.323 113.69C465.895 115.297 464.858 116.673 463.431 117.528L417.724 143.312C419.905 145.559 422.516 147.344 425.402 148.558C428.239 149.749 431.282 150.374 434.359 150.401C437.102 150.441 439.829 149.981 442.408 149.044C444.906 148.153 447.241 146.856 449.318 145.206C451.395 143.517 453.166 141.483 454.551 139.192C455.97 136.846 456.978 134.276 457.533 131.591C457.83 129.976 458.749 128.543 460.092 127.599C460.769 127.106 461.547 126.768 462.369 126.609C463.192 126.45 464.039 126.473 464.852 126.677ZM422.945 106.358C420.684 107.686 418.646 109.362 416.905 111.323C415.198 113.211 413.823 115.374 412.836 117.72C411.857 120.058 411.26 122.538 411.07 125.065C410.866 127.641 411.073 130.232 411.685 132.743L451.237 110.337C449.053 108.126 446.44 106.384 443.559 105.219C440.714 104.062 437.674 103.458 434.602 103.44C432.58 103.428 430.565 103.664 428.601 104.144C426.616 104.598 424.71 105.344 422.945 106.358Z" fill="#581E85"/>
<path d="M669.588 127.957C670.383 128.092 671.141 128.389 671.817 128.83C672.493 129.27 673.071 129.844 673.516 130.516C674.369 131.904 674.692 133.554 674.425 135.161C673.595 139.272 672.039 143.202 669.831 146.767C667.706 150.235 665.011 153.32 661.859 155.89C658.697 158.429 655.133 160.422 651.315 161.789C647.382 163.212 643.225 163.914 639.044 163.862C632.819 163.817 626.711 162.169 621.308 159.076C616.46 156.274 612.336 152.374 609.267 147.69C606.198 143.006 604.27 137.667 603.637 132.103C602.553 122.84 605.15 113.521 610.867 106.153C616.134 99.2336 623.75 94.4788 632.279 92.7842C640.809 91.0897 649.663 92.5724 657.176 96.953C662.71 100.147 667.284 104.77 670.419 110.337C670.851 111.019 671.131 111.785 671.242 112.584C671.352 113.383 671.29 114.196 671.059 114.969C670.631 116.576 669.593 117.953 668.167 118.808L622.46 144.591C624.64 146.839 627.252 148.623 630.138 149.838C632.975 151.028 636.018 151.654 639.095 151.68C641.838 151.72 644.565 151.261 647.143 150.324C649.642 149.433 651.977 148.136 654.053 146.485C656.131 144.797 657.902 142.762 659.287 140.471C660.706 138.126 661.714 135.555 662.268 132.871C662.566 131.256 663.485 129.823 664.828 128.878C665.505 128.385 666.283 128.048 667.105 127.888C667.928 127.729 668.775 127.753 669.588 127.957ZM627.681 107.637C625.42 108.966 623.382 110.641 621.641 112.602C619.934 114.49 618.558 116.653 617.572 119C616.592 121.337 615.996 123.817 615.806 126.345C615.602 128.92 615.809 131.512 616.42 134.022L655.973 111.617C653.789 109.406 651.176 107.664 648.295 106.499C645.45 105.341 642.41 104.737 639.338 104.72C637.316 104.708 635.301 104.944 633.337 105.424C631.352 105.877 629.446 106.623 627.681 107.637Z" fill="#707070"/>
<path d="M511.673 92.3722C512.478 92.3797 513.273 92.5457 514.014 92.8607C514.755 93.1758 515.426 93.6336 515.99 94.2081C516.554 94.7825 516.999 95.4625 517.3 96.209C517.601 96.9555 517.752 97.754 517.744 98.5589C517.737 99.3638 517.571 100.159 517.256 100.9C516.941 101.641 516.483 102.312 515.908 102.876C515.334 103.44 514.654 103.885 513.907 104.186C513.161 104.487 512.362 104.638 511.557 104.63L500.399 104.528C499.039 104.486 497.685 104.719 496.417 105.211C495.148 105.704 493.992 106.446 493.016 107.394C492.031 108.328 491.251 109.457 490.725 110.708C490.199 111.959 489.937 113.305 489.958 114.662L489.6 157.003C489.593 157.808 489.428 158.604 489.113 159.345C488.799 160.086 488.342 160.758 487.768 161.322C487.194 161.887 486.515 162.332 485.769 162.634C485.022 162.936 484.224 163.088 483.419 163.081C482.614 163.074 481.819 162.909 481.077 162.595C480.336 162.281 479.664 161.824 479.1 161.25C478.536 160.676 478.09 159.996 477.788 159.25C477.486 158.504 477.334 157.706 477.341 156.901L477.699 114.547C477.707 111.508 478.338 108.503 479.555 105.718C480.721 103.06 482.38 100.646 484.443 98.6037C486.524 96.5705 488.991 94.9738 491.698 93.9076C494.497 92.791 497.488 92.2346 500.502 92.2698L511.673 92.3722Z" fill="#581E85"/>
<path d="M557.201 92.7944C561.883 92.6491 566.542 93.5223 570.854 95.3535C575.18 97.1807 579.112 99.8267 582.434 103.146C585.739 106.402 588.35 110.294 590.112 114.585C591.877 118.935 592.747 123.596 592.671 128.29L592.415 157.976C592.396 159.186 592.021 160.364 591.338 161.363C590.654 162.361 589.691 163.137 588.57 163.592C587.449 164.048 586.218 164.164 585.031 163.925C583.845 163.686 582.755 163.103 581.897 162.249C581.322 161.679 580.871 160.996 580.574 160.243C580.276 159.489 580.139 158.683 580.169 157.873L580.412 128.187C580.453 125.136 579.871 122.108 578.7 119.289C577.529 116.471 575.796 113.921 573.605 111.796C571.468 109.583 568.89 107.845 566.037 106.694C563.184 105.543 560.121 105.006 557.047 105.117L537.623 104.925L537.175 157.758C537.087 159.336 536.39 160.818 535.23 161.891C534.06 162.985 532.51 163.582 530.908 163.555C529.307 163.529 527.778 162.882 526.644 161.75C526.074 161.177 525.626 160.493 525.329 159.74C525.032 158.988 524.892 158.183 524.916 157.374L525.364 104.822C525.353 103.206 525.667 101.603 526.287 100.11C526.907 98.6171 527.821 97.2636 528.974 96.13C530.126 94.9964 531.495 94.1058 532.998 93.5108C534.501 92.9158 536.109 92.6287 537.725 92.6664L557.201 92.7944Z" fill="#707070"/>
<path d="M692.953 68.8025C692.959 67.9976 693.125 67.2019 693.439 66.4609C693.753 65.7198 694.21 65.0479 694.784 64.4835C695.358 63.9191 696.038 63.4733 696.784 63.1715C697.53 62.8697 698.328 62.7178 699.133 62.7245C699.938 62.7312 700.734 62.8964 701.475 63.2107C702.216 63.5249 702.888 63.982 703.452 64.5559C704.017 65.1298 704.463 65.8092 704.764 66.5554C705.066 67.3016 705.218 68.0999 705.211 68.9048L705.058 93.5622L720.042 93.6901C720.869 93.6598 721.694 93.7976 722.467 94.095C723.24 94.3924 723.945 94.8433 724.538 95.4205C725.132 95.9977 725.603 96.6893 725.922 97.4534C726.241 98.2175 726.402 99.0384 726.395 99.8664C726.388 100.694 726.213 101.512 725.882 102.271C725.55 103.03 725.068 103.713 724.464 104.281C723.861 104.848 723.149 105.287 722.371 105.571C721.594 105.856 720.766 105.98 719.94 105.936L704.955 105.808L704.648 141.904C704.608 143.269 704.848 144.627 705.355 145.895C705.861 147.163 706.622 148.313 707.591 149.275C708.516 150.25 709.632 151.025 710.869 151.551C712.106 152.077 713.438 152.343 714.783 152.333H718.724C719.521 152.333 720.309 152.493 721.043 152.803C721.777 153.113 722.442 153.567 722.998 154.137C723.574 154.709 724.031 155.39 724.34 156.14C724.65 156.891 724.806 157.696 724.8 158.507C724.795 159.319 724.626 160.122 724.306 160.868C723.985 161.614 723.519 162.288 722.934 162.851C722.367 163.412 721.693 163.854 720.952 164.151C720.212 164.447 719.419 164.593 718.621 164.578H714.668C711.675 164.572 708.717 163.944 705.979 162.736C700.585 160.386 696.321 156.025 694.092 150.58C692.937 147.79 692.363 144.795 692.403 141.776L692.71 105.692H684.943C684.138 105.686 683.342 105.521 682.601 105.206C681.86 104.892 681.188 104.435 680.623 103.861C680.059 103.287 679.613 102.608 679.311 101.862C679.01 101.115 678.858 100.317 678.864 99.5122C678.871 98.7073 679.036 97.9116 679.351 97.1705C679.665 96.4295 680.122 95.7576 680.696 95.1932C681.27 94.6288 681.949 94.183 682.695 93.8812C683.442 93.5794 684.24 93.4275 685.045 93.4342H692.812L692.953 68.8025Z" fill="#707070"/>
<path d="M732.275 72.2701C732.261 71.0472 732.494 69.834 732.96 68.7035C733.427 67.5729 734.117 66.5484 734.99 65.6914C735.862 64.8344 736.899 64.1627 738.038 63.7166C739.176 63.2705 740.394 63.0593 741.616 63.0956C742.811 63.0862 743.996 63.3221 745.096 63.7887C746.197 64.2553 747.19 64.9426 748.014 65.8083C748.869 66.6786 749.536 67.7143 749.976 68.8518C750.417 69.9894 750.62 71.2048 750.573 72.4236C750.57 73.6237 750.329 74.8112 749.863 75.9173C749.398 77.0235 748.718 78.0263 747.862 78.8677C747.006 79.7091 745.992 80.3724 744.878 80.8191C743.764 81.2658 742.573 81.4871 741.373 81.4702C740.15 81.4913 738.935 81.2614 737.804 80.7949C736.672 80.3283 735.649 79.6349 734.796 78.7575C733.956 77.9052 733.298 76.89 732.865 75.7743C732.431 74.6587 732.231 73.4662 732.275 72.2701ZM746.926 159.422C746.919 160.226 746.753 161.022 746.438 161.763C746.123 162.503 745.665 163.175 745.09 163.739C744.516 164.302 743.836 164.748 743.09 165.049C742.343 165.35 741.544 165.501 740.74 165.493C739.935 165.486 739.139 165.32 738.398 165.005C737.658 164.69 736.986 164.232 736.422 163.657C735.859 163.083 735.413 162.403 735.112 161.656C734.811 160.91 734.66 160.111 734.668 159.306L735.18 99.9472C735.193 98.3216 735.852 96.7681 737.011 95.6282C738.17 94.4884 739.735 93.8557 741.36 93.8692C742.986 93.8828 744.539 94.5416 745.679 95.7006C746.819 96.8597 747.452 98.424 747.438 100.05L746.926 159.422Z" fill="#707070"/>
<path d="M810.919 145.525C811.503 144.876 812.22 144.361 813.022 144.017C813.824 143.672 814.691 143.506 815.564 143.529C817.023 143.5 818.435 144.047 819.492 145.052C820.118 145.549 820.632 146.171 821.002 146.878C821.372 147.586 821.59 148.363 821.642 149.159C821.737 149.973 821.648 150.798 821.382 151.573C821.116 152.348 820.68 153.053 820.107 153.638C816.741 157.602 812.525 160.756 807.771 162.864C803.047 164.954 797.927 166.001 792.762 165.935C787.992 165.922 783.276 164.933 778.904 163.03C770.304 159.318 763.495 152.394 759.927 143.734C757.195 137.142 756.501 129.883 757.933 122.893C759.365 115.903 762.859 109.502 767.963 104.515C771.29 101.296 775.198 98.7385 779.479 96.9786C783.874 95.157 788.593 94.2472 793.35 94.3043C798.515 94.2443 803.626 95.3601 808.296 97.5672C812.988 99.7692 817.144 102.965 820.478 106.934C821.041 107.528 821.464 108.242 821.716 109.021C821.969 109.8 822.044 110.626 821.936 111.438C821.748 112.978 821.012 114.399 819.863 115.443C819.324 115.979 818.683 116.403 817.977 116.688C817.272 116.974 816.517 117.116 815.756 117.106C814.871 117.105 813.998 116.906 813.201 116.523C812.404 116.14 811.703 115.583 811.149 114.893C808.963 112.279 806.222 110.186 803.126 108.763C800.037 107.334 796.677 106.584 793.273 106.563C790.114 106.516 786.979 107.117 784.06 108.328C778.392 110.659 773.859 115.113 771.431 120.74C770.19 123.643 769.538 126.762 769.512 129.919C769.485 133.075 770.085 136.205 771.277 139.128C773.598 144.802 778.056 149.338 783.689 151.757C786.705 153.053 789.958 153.706 793.241 153.675C796.524 153.645 799.764 152.93 802.755 151.578C805.881 150.173 808.666 148.108 810.919 145.525Z" fill="#707070"/>
<path d="M878.341 95.5711C879.144 95.575 879.938 95.744 880.673 96.0675C881.408 96.3911 882.069 96.8624 882.615 97.452C883.203 98.0294 883.667 98.7213 883.977 99.485C884.287 100.249 884.438 101.068 884.419 101.892C884.426 102.703 884.262 103.506 883.938 104.249C883.614 104.992 883.137 105.658 882.538 106.204C881.974 106.767 881.303 107.211 880.564 107.51C879.826 107.808 879.035 107.956 878.238 107.945L848.002 107.689C846.967 107.659 845.938 107.838 844.974 108.217C844.011 108.595 843.135 109.164 842.397 109.889C841.644 110.59 841.045 111.44 840.64 112.385C840.234 113.331 840.031 114.35 840.042 115.379C839.997 117.219 840.661 119.006 841.898 120.369C843.06 121.759 844.716 122.644 846.517 122.839L871.405 126.153C873.807 126.526 876.127 127.309 878.264 128.469C880.348 129.582 882.205 131.075 883.741 132.871C885.271 134.65 886.475 136.686 887.298 138.885C888.154 141.127 888.588 143.509 888.578 145.909C888.573 148.562 888.041 151.187 887.013 153.632C885.985 156.078 884.482 158.295 882.59 160.154C880.699 162.014 878.456 163.479 875.994 164.465C873.531 165.45 870.897 165.937 868.245 165.896L835.845 165.615C835.018 165.645 834.193 165.507 833.42 165.21C832.647 164.912 831.942 164.462 831.349 163.884C830.755 163.307 830.284 162.616 829.965 161.851C829.646 161.087 829.485 160.266 829.492 159.438C829.499 158.61 829.674 157.792 830.006 157.034C830.337 156.275 830.82 155.591 831.423 155.024C832.026 154.457 832.738 154.018 833.516 153.733C834.294 153.449 835.121 153.325 835.948 153.369L868.347 153.638C869.389 153.669 870.426 153.484 871.393 153.095C872.36 152.705 873.236 152.119 873.965 151.373C874.715 150.654 875.313 149.79 875.719 148.833C876.126 147.876 876.335 146.847 876.332 145.807C876.344 143.993 875.678 142.241 874.464 140.893C873.902 140.185 873.206 139.594 872.415 139.155C871.625 138.716 870.755 138.437 869.857 138.334L844.969 134.995C842.555 134.717 840.222 133.956 838.11 132.755C836.049 131.609 834.197 130.12 832.634 128.354C831.08 126.586 829.873 124.541 829.076 122.327C827.292 117.513 827.434 112.196 829.473 107.484C831.528 102.671 835.4 98.863 840.247 96.889C842.753 95.8559 845.445 95.3464 848.155 95.3919L878.392 95.6478L878.341 95.5711Z" fill="#707070"/>
<path d="M92.7963 50.3255C93.679 49.1262 94.9134 48.2317 96.328 47.7664C97.6897 47.3151 99.1162 47.0904 100.551 47.101C101.835 47.0458 103.117 47.2509 104.32 47.7039C105.522 48.1568 106.621 48.8484 107.55 49.7369C108.587 50.6783 109.426 51.8175 110.017 53.0876C110.608 54.3576 110.94 55.7329 110.992 57.1328C111.069 58.5285 110.852 59.9248 110.356 61.2317C109.861 62.5386 109.096 63.7271 108.113 64.7207L65.8864 109.762L107.141 152.269C109.078 154.286 110.149 156.983 110.122 159.78C110.104 161.185 109.798 162.572 109.224 163.855C108.649 165.138 107.818 166.29 106.782 167.24C105.852 168.226 104.72 169 103.464 169.508C102.207 170.016 100.855 170.246 99.5014 170.183C98.1121 170.205 96.7332 169.941 95.4499 169.409C94.1667 168.876 93.0065 168.086 92.0413 167.086L43.5062 117.311C42.5473 116.363 41.7918 115.23 41.2858 113.98C40.7798 112.731 40.5339 111.391 40.5631 110.043C40.5453 107.353 41.5729 104.761 43.4294 102.813L92.7963 50.3255Z" fill="#581E85"/>
<path d="M930.497 174.367C929.615 175.566 928.38 176.461 926.966 176.926C925.602 177.371 924.177 177.596 922.743 177.592C921.459 177.647 920.176 177.443 918.974 176.99C917.771 176.537 916.672 175.845 915.744 174.956C914.706 174.014 913.867 172.875 913.276 171.605C912.685 170.335 912.354 168.96 912.301 167.56C912.222 166.161 912.436 164.761 912.929 163.45C913.423 162.139 914.185 160.945 915.168 159.946L957.394 114.905L916.191 72.4365C914.254 70.4189 913.183 67.7226 913.21 64.9254C913.229 63.5182 913.536 62.1298 914.11 60.8449C914.684 59.5601 915.514 58.4059 916.55 57.4527C917.479 56.4639 918.61 55.6869 919.866 55.1746C921.123 54.6623 922.475 54.4268 923.83 54.4841C925.214 54.4643 926.586 54.7289 927.863 55.2616C929.14 55.7942 930.293 56.5836 931.252 57.5807L979.749 107.382C980.717 108.327 981.481 109.461 981.994 110.713C982.506 111.965 982.757 113.309 982.73 114.662C982.748 117.353 981.721 119.945 979.864 121.892L930.497 174.367Z" fill="#707070"/>
</svg>
